<?xml version="1.0" encoding="UTF-8"?>
<svg xmlns="http://www.w3.org/2000/svg" xmlns:xlink="http://www.w3.org/1999/xlink" width="281.25pt" height="281.249989pt" viewBox="0 0 281.25 281.249989" version="1.2">
<defs>
<clipPath id="clip1">
  <path d="M 0 0 L 280.503906 0 L 280.503906 280.503906 L 0 280.503906 Z M 0 0 "/>
</clipPath>
<clipPath id="clip2">
  <path d="M 25.238281 66.273438 L 259.4375 66.273438 L 259.4375 146.011719 L 25.238281 146.011719 Z M 25.238281 66.273438 "/>
</clipPath>
</defs>
<g id="surface1">
<g clip-path="url(#clip1)" clip-rule="nonzero">
<rect x="0" y="0" width="281.25" height="281.249989" style="fill:rgb(94.509888%,94.509888%,94.509888%);fill-opacity:1;stroke:none;"/>
<rect x="0" y="0" width="281.25" height="281.249989" style="fill:rgb(94.509888%,94.509888%,94.509888%);fill-opacity:1;stroke:none;"/>
<rect x="0" y="0" width="281.25" height="281.249989" style="fill:rgb(94.509888%,94.509888%,94.509888%);fill-opacity:1;stroke:none;"/>
</g>
<g clip-path="url(#clip2)" clip-rule="nonzero">
<path style=" stroke:none;fill-rule:nonzero;fill:rgb(13.729858%,12.159729%,12.548828%);fill-opacity:1;" d="M 259.273438 106.140625 L 218.984375 66.273438 L 180.65625 104.195312 L 142.339844 66.273438 L 104.019531 104.195312 L 65.695312 66.273438 L 25.40625 106.140625 L 65.695312 146.011719 L 104.019531 108.09375 L 142.339844 146.011719 L 180.65625 108.09375 L 218.984375 146.011719 Z M 65.695312 142.109375 L 29.347656 106.140625 L 65.695312 70.171875 L 102.042969 106.140625 Z M 142.339844 142.109375 L 105.992188 106.140625 L 142.339844 70.171875 L 178.6875 106.140625 Z M 218.984375 70.171875 L 255.332031 106.140625 L 218.984375 142.109375 L 182.628906 106.140625 Z M 218.984375 70.171875 "/>
</g>
<path style=" stroke:none;fill-rule:nonzero;fill:rgb(0%,0%,0%);fill-opacity:1;" d="M 43.785156 207.671875 L 43.761719 210.570312 C 43.761719 213.417969 42.988281 215.757812 41.453125 217.59375 C 39.910156 219.421875 38.09375 220.34375 36 220.34375 C 35.003906 220.34375 34.5 219.863281 34.5 218.917969 C 34.5 218.539062 34.648438 218.097656 34.941406 217.59375 C 35.226562 217.101562 35.453125 216.855469 35.632812 216.855469 C 35.816406 216.855469 36.089844 217.066406 36.464844 217.496094 C 36.859375 217.917969 37.3125 218.132812 37.839844 218.132812 C 39.214844 218.132812 40.078125 217.15625 40.421875 215.210938 C 40.746094 213.503906 40.910156 212.257812 40.910156 211.453125 L 40.910156 207.054688 L 40.886719 206.074219 C 40.886719 205.570312 40.875 205.132812 40.863281 204.773438 C 40.84375 204.398438 40.835938 204 40.835938 203.570312 C 40.789062 202.292969 40.765625 199.871094 40.765625 196.300781 C 40.765625 192.714844 40.714844 190.550781 40.617188 189.816406 C 40.53125 189.078125 40.199219 188.5625 39.609375 188.269531 C 39.03125 187.960938 38.441406 187.796875 37.839844 187.777344 C 37.234375 187.746094 36.933594 187.519531 36.933594 187.089844 C 36.933594 186.664062 37.300781 186.449219 38.039062 186.449219 C 38.285156 186.449219 38.847656 186.492188 39.730469 186.574219 C 40.617188 186.660156 41.457031 186.695312 42.261719 186.695312 C 42.261719 186.695312 43.269531 186.683594 45.28125 186.648438 C 45.984375 186.648438 46.339844 186.8125 46.339844 187.140625 C 46.339844 187.371094 45.761719 187.714844 44.621094 188.171875 C 44.089844 188.386719 43.832031 189.238281 43.832031 190.722656 L 43.832031 192.445312 Z M 43.785156 207.671875 "/>
<path style=" stroke:none;fill-rule:nonzero;fill:rgb(0%,0%,0%);fill-opacity:1;" d="M 56.179688 200.449219 C 56.179688 196.261719 57.4375 192.832031 59.960938 190.160156 C 62.476562 187.476562 66.050781 186.132812 70.667969 186.132812 C 72.8125 186.132812 74.746094 186.445312 76.464844 187.066406 C 78.183594 187.691406 79.539062 188.457031 80.542969 189.375 C 81.535156 190.277344 82.371094 191.3125 83.046875 192.492188 C 84.226562 194.542969 84.8125 196.539062 84.8125 198.484375 C 84.8125 201.875 84.152344 204.742188 82.824219 207.082031 C 80.300781 211.519531 76.078125 213.738281 70.152344 213.738281 C 67.167969 213.738281 64.601562 213.09375 62.441406 211.796875 C 60.292969 210.507812 58.714844 208.875 57.699219 206.910156 C 56.679688 204.933594 56.179688 202.777344 56.179688 200.449219 Z M 59.46875 198.558594 C 59.46875 200.769531 60.058594 203.042969 61.238281 205.363281 C 61.859375 206.609375 62.613281 207.730469 63.496094 208.726562 C 64.382812 209.707031 65.5 210.519531 66.863281 211.15625 C 68.21875 211.785156 69.710938 212.089844 71.332031 212.089844 C 73.179688 212.089844 75.003906 211.5625 76.808594 210.496094 C 78.804688 209.316406 80.210938 207.683594 81.03125 205.582031 C 81.503906 204.472656 81.746094 203.25 81.746094 201.921875 C 81.746094 197.40625 80.554688 193.894531 78.183594 191.386719 C 75.808594 188.882812 72.878906 187.628906 69.390625 187.628906 C 66.640625 187.628906 64.296875 188.558594 62.367188 190.40625 C 60.433594 192.242188 59.46875 194.960938 59.46875 198.558594 Z M 59.46875 198.558594 "/>
<path style=" stroke:none;fill-rule:nonzero;fill:rgb(0%,0%,0%);fill-opacity:1;" d="M 95.945312 212.089844 L 96.804688 212.066406 C 97.324219 212.066406 97.765625 211.625 98.128906 210.742188 C 98.339844 210.167969 98.472656 209.261719 98.523438 208.015625 C 98.582031 206.773438 98.621094 203.070312 98.621094 196.914062 L 98.621094 190.550781 C 98.621094 190.148438 98.484375 189.691406 98.226562 189.203125 C 97.738281 188.15625 96.761719 187.628906 95.304688 187.628906 C 94.875 187.628906 94.667969 187.476562 94.667969 187.164062 C 94.667969 186.789062 94.777344 186.597656 95.011719 186.597656 L 96.507812 186.648438 L 101.984375 186.597656 L 106.085938 186.5 C 108.359375 186.5 110.261719 187.039062 111.785156 188.121094 C 113.308594 189.203125 114.070312 190.742188 114.070312 192.738281 C 114.070312 194.886719 112.945312 196.644531 110.703125 198.019531 C 110.457031 198.203125 110.335938 198.300781 110.335938 198.3125 C 110.335938 198.398438 110.539062 198.496094 110.949219 198.609375 C 111.375 198.726562 111.882812 198.914062 112.472656 199.171875 C 113.074219 199.4375 113.675781 199.800781 114.265625 200.253906 C 114.855469 200.695312 115.359375 201.359375 115.789062 202.242188 C 116.210938 203.128906 116.425781 204.144531 116.425781 205.289062 C 116.425781 206.417969 116.113281 207.597656 115.492188 208.824219 C 114.867188 210.039062 114.070312 210.980469 113.085938 211.648438 C 112.117188 212.324219 111.160156 212.792969 110.210938 213.050781 C 109.261719 213.308594 108.199219 213.441406 107.019531 213.441406 C 105.855469 213.441406 104.449219 213.367188 102.796875 213.222656 C 101.15625 213.09375 100.246094 213.023438 100.070312 213.023438 L 96.851562 213.195312 L 96.335938 213.195312 C 95.808594 213.195312 95.550781 213.019531 95.550781 212.65625 C 95.550781 212.28125 95.679688 212.089844 95.945312 212.089844 Z M 101.496094 208.0625 L 101.445312 209.707031 C 101.445312 211.199219 102.671875 211.945312 105.128906 211.945312 L 105.988281 211.945312 C 107.328125 211.945312 108.492188 211.863281 109.476562 211.699219 C 110.457031 211.539062 111.324219 210.949219 112.078125 209.929688 C 112.847656 208.898438 113.234375 207.730469 113.234375 206.417969 C 113.234375 205.089844 113.011719 203.988281 112.570312 203.101562 C 112.128906 202.21875 111.613281 201.554688 111.023438 201.113281 C 110.445312 200.660156 109.769531 200.300781 108.984375 200.058594 C 107.886719 199.699219 106.859375 199.515625 105.914062 199.515625 L 102.992188 199.492188 L 102.425781 199.441406 C 102.195312 199.441406 102.035156 199.480469 101.9375 199.542969 C 101.839844 199.609375 101.738281 199.855469 101.640625 200.277344 C 101.542969 200.804688 101.496094 202.550781 101.496094 205.507812 Z M 101.667969 192.738281 C 101.667969 195.882812 101.753906 197.636719 101.9375 197.992188 C 102.035156 198.160156 102.746094 198.238281 104.074219 198.238281 L 106.480469 198.238281 C 108.050781 198.238281 109.230469 197.835938 110.015625 197.011719 C 110.800781 196.195312 111.195312 195.113281 111.195312 193.769531 C 111.195312 192.414062 110.539062 191.082031 109.230469 189.765625 C 107.917969 188.457031 106.050781 187.800781 103.632812 187.800781 C 102.84375 187.800781 102.316406 188.042969 102.058594 188.515625 C 101.796875 188.972656 101.667969 190.023438 101.667969 191.65625 Z M 101.667969 192.738281 "/>
<path style=" stroke:none;fill-rule:nonzero;fill:rgb(0%,0%,0%);fill-opacity:1;" d="M 142.003906 187.359375 L 142.863281 187.066406 C 143.191406 187.066406 143.378906 187.164062 143.429688 187.359375 C 143.953125 190.375 144.214844 192.148438 144.214844 192.6875 C 144.214844 193.230469 144.042969 193.5 143.699219 193.5 C 143.464844 193.5 143.246094 193.230469 143.035156 192.6875 C 142.820312 192.148438 142.570312 191.65625 142.277344 191.214844 C 141.992188 190.773438 141.789062 190.492188 141.660156 190.355469 C 141.546875 190.226562 141.226562 189.925781 140.703125 189.449219 C 139.359375 188.257812 137.816406 187.65625 136.085938 187.65625 C 134.347656 187.65625 132.957031 188.035156 131.910156 188.785156 C 130.863281 189.539062 130.339844 190.515625 130.339844 191.707031 C 130.339844 192.902344 130.640625 193.863281 131.25 194.582031 C 131.867188 195.304688 132.683594 195.871094 133.703125 196.273438 C 134.734375 196.667969 135.804688 197.035156 136.921875 197.378906 C 139.949219 198.332031 142.183594 199.566406 143.625 201.089844 C 144.621094 202.167969 145.125 203.507812 145.125 205.089844 C 145.125 207.714844 144.289062 209.796875 142.621094 211.328125 C 140.949219 212.871094 138.875 213.636719 136.40625 213.636719 C 134.6875 213.636719 133.300781 213.539062 132.253906 213.34375 C 131.207031 213.160156 130.132812 212.792969 129.039062 212.214844 C 128.707031 212.015625 128.3125 211.046875 127.859375 209.292969 C 127.417969 207.542969 127.195312 206.453125 127.195312 206.023438 C 127.195312 205.582031 127.355469 205.363281 127.6875 205.363281 C 128.03125 205.363281 128.238281 205.484375 128.324219 205.730469 C 129.242188 207.960938 130.320312 209.53125 131.566406 210.445312 C 132.925781 211.476562 134.550781 211.992188 136.453125 211.992188 C 138.371094 211.992188 139.894531 211.5 141.023438 210.519531 C 142.152344 209.523438 142.71875 208.230469 142.71875 206.640625 C 142.71875 205.460938 142.332031 204.476562 141.5625 203.691406 C 140.789062 202.90625 139.90625 202.339844 138.910156 201.996094 C 135.191406 200.757812 132.671875 199.738281 131.347656 198.953125 C 129.070312 197.613281 127.933594 195.808594 127.933594 193.546875 C 127.933594 191.277344 128.730469 189.472656 130.339844 188.144531 C 131.960938 186.808594 134.054688 186.132812 136.625 186.132812 C 137.574219 186.132812 138.703125 186.339844 140.015625 186.746094 C 141.324219 187.15625 141.988281 187.359375 142.003906 187.359375 Z M 142.003906 187.359375 "/>
<path style=" stroke:none;fill-rule:nonzero;fill:rgb(0%,0%,0%);fill-opacity:1;" d="M 160.148438 213.222656 L 156.980469 213.292969 C 156.421875 213.292969 156.144531 213.097656 156.144531 212.707031 C 156.144531 212.476562 156.304688 212.332031 156.636719 212.261719 C 156.960938 212.203125 157.359375 212.011719 157.839844 211.699219 C 158.3125 211.371094 158.648438 210.839844 158.847656 210.101562 C 159.042969 209.363281 159.253906 206.96875 159.484375 202.90625 C 159.710938 198.828125 159.828125 195.871094 159.828125 194.015625 C 159.828125 192.167969 159.523438 190.71875 158.921875 189.667969 C 158.332031 188.605469 157.355469 188 155.996094 187.851562 C 155.667969 187.820312 155.507812 187.628906 155.507812 187.285156 C 155.507812 187.140625 155.59375 187.003906 155.777344 186.867188 C 155.953125 186.722656 156.183594 186.648438 156.464844 186.648438 L 157.863281 186.695312 L 159.707031 186.597656 C 159.933594 186.597656 160.199219 186.671875 160.492188 186.820312 C 160.785156 186.953125 160.957031 187.078125 161.007812 187.1875 C 161.070312 187.304688 161.210938 187.496094 161.425781 187.753906 C 161.652344 188.015625 161.953125 188.359375 162.335938 188.785156 C 162.707031 189.214844 163.046875 189.621094 163.339844 190.011719 C 166.730469 194.433594 171.273438 199.761719 176.972656 206 C 177.117188 206.183594 177.296875 206.386719 177.511719 206.613281 C 177.722656 206.828125 177.867188 206.996094 177.953125 207.105469 C 178.035156 207.222656 178.132812 207.328125 178.25 207.425781 C 178.410156 207.589844 178.542969 207.671875 178.640625 207.671875 C 178.898438 207.671875 179.035156 206.902344 179.035156 205.363281 L 179.035156 200.992188 L 178.960938 193.304688 L 178.960938 193.058594 C 178.960938 190.75 178.554688 189.289062 177.757812 188.660156 C 177.445312 188.453125 177.191406 188.3125 176.996094 188.242188 C 176.800781 188.183594 176.511719 188.109375 176.136719 188.023438 C 175.117188 187.828125 174.613281 187.550781 174.613281 187.1875 C 174.613281 186.832031 174.847656 186.648438 175.328125 186.648438 L 178.863281 186.695312 C 178.863281 186.695312 179.992188 186.664062 182.253906 186.597656 C 182.675781 186.597656 182.964844 186.648438 183.113281 186.746094 C 183.269531 186.832031 183.355469 186.960938 183.355469 187.140625 C 183.355469 187.304688 183.285156 187.445312 183.136719 187.554688 C 182.941406 187.671875 182.578125 187.820312 182.054688 188 C 181.234375 188.441406 180.828125 189.851562 180.828125 192.222656 L 180.828125 193.648438 L 180.410156 212.164062 L 180.410156 212.925781 C 180.410156 213.496094 180.238281 213.785156 179.894531 213.785156 C 179.660156 213.785156 179.457031 213.695312 179.28125 213.515625 C 170.992188 203.90625 166.050781 198.203125 164.445312 196.398438 C 162.835938 194.597656 161.949219 193.695312 161.769531 193.695312 C 161.523438 193.695312 161.402344 194.714844 161.402344 196.742188 C 161.402344 198.773438 161.351562 201.15625 161.253906 203.886719 C 161.15625 206.625 161.105469 208.113281 161.105469 208.359375 C 161.105469 209.488281 161.289062 210.347656 161.671875 210.9375 C 162.0625 211.515625 162.480469 211.839844 162.921875 211.917969 C 163.378906 211.988281 163.796875 212.066406 164.175781 212.164062 C 164.570312 212.25 164.765625 212.421875 164.765625 212.679688 C 164.765625 212.945312 164.714844 213.109375 164.617188 213.171875 C 164.53125 213.25 164.386719 213.292969 164.175781 213.292969 Z M 160.148438 213.222656 "/>
<path style=" stroke:none;fill-rule:nonzero;fill:rgb(0%,0%,0%);fill-opacity:1;" d="M 196.457031 199.859375 L 196.554688 193.375 C 196.554688 192.707031 196.53125 191.578125 196.484375 189.988281 C 196.464844 189.25 196.152344 188.6875 195.550781 188.292969 C 194.960938 187.898438 194.261719 187.691406 193.460938 187.65625 C 193.050781 187.65625 192.847656 187.433594 192.847656 186.992188 C 192.847656 186.636719 193.199219 186.449219 193.902344 186.449219 L 194.910156 186.523438 L 204.046875 186.722656 L 211.539062 186.574219 C 212.011719 186.574219 212.25 186.863281 212.25 187.433594 C 212.25 187.582031 212.175781 188.070312 212.027344 188.90625 C 211.882812 189.742188 211.808594 190.398438 211.808594 190.871094 C 211.808594 191.675781 211.613281 192.074219 211.21875 192.074219 C 210.824219 192.074219 210.628906 191.78125 210.628906 191.191406 C 210.628906 190.589844 210.414062 190.011719 209.992188 189.472656 C 209.578125 188.917969 209.058594 188.625 208.417969 188.585938 C 206.171875 188.429688 204.453125 188.34375 203.261719 188.34375 L 202.304688 188.34375 C 200.988281 188.34375 200.242188 188.429688 200.042969 188.585938 C 199.664062 188.917969 199.480469 191.675781 199.480469 196.863281 C 199.480469 198.109375 199.710938 198.75 200.191406 198.78125 L 203.875 198.78125 C 205.359375 198.78125 206.355469 198.730469 206.847656 198.632812 C 208.15625 198.375 208.890625 197.71875 209.058594 196.667969 C 209.136719 196.261719 209.304688 196.054688 209.546875 196.054688 C 209.792969 196.054688 209.941406 196.097656 209.992188 196.175781 C 210.050781 196.246094 210.089844 196.398438 210.089844 196.644531 L 209.769531 200.574219 L 209.890625 202.855469 C 209.890625 203.484375 209.800781 203.789062 209.621094 203.789062 C 209.242188 203.789062 208.972656 203.488281 208.8125 202.882812 C 208.449219 201.835938 208.136719 201.230469 207.878906 201.0625 C 207.351562 200.707031 206.4375 200.523438 205.128906 200.523438 L 202.449219 200.523438 L 201.246094 200.5 L 200.976562 200.5 C 199.957031 200.5 199.453125 200.738281 199.453125 201.210938 L 199.382812 206.589844 L 199.382812 208.089844 C 199.382812 209.894531 199.683594 210.886719 200.289062 211.085938 C 200.890625 211.269531 201.425781 211.355469 201.886719 211.355469 C 205.617188 211.355469 208.320312 211.054688 209.992188 210.445312 C 211.464844 209.90625 212.359375 209.335938 212.691406 208.726562 C 212.988281 208.105469 213.261719 207.792969 213.527344 207.792969 C 213.820312 207.792969 213.96875 208.007812 213.96875 208.433594 C 213.96875 209.511719 213.429688 210.605469 212.347656 211.699219 C 211.28125 212.796875 210.347656 213.34375 209.546875 213.34375 C 207.742188 213.34375 205.71875 213.277344 203.457031 213.148438 C 201.210938 213.019531 199.8125 212.949219 199.257812 212.949219 L 194.175781 213.292969 C 193.644531 213.292969 193.386719 213.171875 193.386719 212.925781 L 193.386719 212.484375 C 193.386719 212.324219 193.511719 212.214844 193.757812 212.164062 C 194.03125 212.152344 194.457031 212.003906 195.035156 211.722656 C 195.605469 211.445312 195.980469 210.875 196.164062 210.003906 C 196.359375 209.136719 196.457031 207.300781 196.457031 204.503906 Z M 196.457031 199.859375 "/>
<path style=" stroke:none;fill-rule:nonzero;fill:rgb(0%,0%,0%);fill-opacity:1;" d="M 224.578125 186.277344 C 224.902344 186.277344 225.914062 186.328125 227.621094 186.425781 C 229.339844 186.523438 232.707031 186.574219 237.714844 186.574219 C 242.738281 186.574219 245.777344 186.5 246.828125 186.351562 C 247.105469 186.351562 247.292969 186.425781 247.390625 186.574219 C 247.492188 186.722656 247.539062 186.863281 247.539062 186.992188 L 247.761719 190.011719 C 247.761719 190.636719 247.71875 191.03125 247.636719 191.191406 C 247.570312 191.355469 247.417969 191.4375 247.171875 191.4375 C 246.957031 191.4375 246.785156 191.183594 246.65625 190.675781 C 246.519531 190.171875 246.371094 189.777344 246.214844 189.496094 C 245.851562 188.84375 244.769531 188.515625 242.972656 188.515625 L 238.109375 188.515625 C 237.5 188.515625 237.125 188.636719 236.980469 188.882812 C 236.84375 189.117188 236.78125 189.792969 236.78125 190.921875 L 236.78125 192.738281 L 236.683594 206.441406 L 236.636719 208.875 C 236.636719 209.953125 236.792969 210.660156 237.125 210.984375 C 237.46875 211.300781 237.839844 211.539062 238.230469 211.699219 C 238.636719 211.863281 238.980469 211.960938 239.261719 211.992188 C 239.964844 212.042969 240.320312 212.261719 240.320312 212.65625 C 240.320312 212.9375 240.25 213.109375 240.121094 213.171875 C 239.988281 213.25 239.753906 213.292969 239.410156 213.292969 L 235.261719 213 L 231.429688 213.269531 C 230.507812 213.269531 230.054688 213.066406 230.054688 212.65625 C 230.054688 212.410156 230.125 212.25 230.273438 212.164062 C 230.421875 212.066406 230.714844 211.992188 231.160156 211.945312 C 231.601562 211.882812 231.875 211.832031 231.992188 211.796875 C 232.839844 211.601562 233.320312 211.101562 233.417969 210.296875 C 233.664062 208.105469 233.785156 203.390625 233.785156 196.152344 L 233.761719 189.449219 C 233.761719 188.972656 233.621094 188.6875 233.34375 188.585938 C 233.0625 188.476562 232.148438 188.414062 230.59375 188.414062 C 229.050781 188.414062 227.84375 188.464844 226.957031 188.5625 C 226.074219 188.660156 225.558594 188.753906 225.410156 188.832031 C 225.265625 188.917969 225.078125 189.097656 224.871094 189.375 C 224.65625 189.65625 224.476562 189.976562 224.332031 190.332031 C 224.195312 190.695312 224.109375 190.988281 224.0625 191.214844 C 223.992188 191.792969 223.753906 192.074219 223.347656 192.074219 C 223.066406 192.074219 222.929688 191.867188 222.929688 191.4375 C 222.929688 190.441406 222.992188 189.539062 223.128906 188.734375 C 223.257812 187.917969 223.324219 187.453125 223.324219 187.335938 C 223.335938 187.207031 223.355469 187.125 223.375 187.089844 C 223.386719 187.039062 223.398438 186.980469 223.398438 186.894531 C 223.410156 186.8125 223.429688 186.757812 223.445312 186.722656 C 223.476562 186.671875 223.507812 186.617188 223.546875 186.550781 C 223.59375 186.488281 223.644531 186.445312 223.691406 186.425781 C 223.742188 186.394531 223.804688 186.371094 223.890625 186.351562 C 224.035156 186.304688 224.261719 186.277344 224.578125 186.277344 Z M 224.578125 186.277344 "/>
</g>
</svg>
